<svg xmlns="http://www.w3.org/2000/svg" xmlns:xlink="http://www.w3.org/1999/xlink" viewBox="0 0 802 1023"><defs><style>.cls-1{fill:url(#Degradado_sin_nombre_11);}.cls-2{fill:#211915;}.cls-3{fill:#2f2f2f;stroke:#2f2f2f;}.cls-3,.cls-5{stroke-miterlimit:10;stroke-width:10px;}.cls-4{fill:#2a2a2a;}.cls-5{fill:#201f20;stroke:#201f20;}.cls-6,.cls-9{fill:none;stroke-linecap:round;stroke-linejoin:round;}.cls-6{stroke:#1e1d1f;stroke-width:23px;}.cls-7{fill:#1e1d1f;}.cls-8{fill:#3e3e3e;}.cls-9{stroke:#040006;stroke-width:36px;}.cls-10{fill:#040006;}.cls-11{fill:#fafafa;}</style><linearGradient id="Degradado_sin_nombre_11" x1="542.99" y1="206.11" x2="1072.9" y2="206.11" gradientTransform="translate(-494.41 310.58) rotate(-18.61)" gradientUnits="userSpaceOnUse"><stop offset="0" stop-color="#fff" stop-opacity="0.5"/><stop offset="0.89" stop-color="#fff" stop-opacity="0"/></linearGradient></defs><title>Mesa de trabajo 1</title><g id="Capa_2" data-name="Capa 2"><polygon class="cls-1" points="82.42 322.07 515.09 -53.52 608.53 398.21 203.17 524.3 82.42 322.07"/></g><g id="Capa_1" data-name="Capa 1"><rect class="cls-2" x="119.04" y="284.94" width="33.89" height="279.44" rx="16.95" ry="16.95" transform="translate(-173.9 104.04) rotate(-26.27)"/><path class="cls-3" d="M331.64,433.75s378.77-96.37,90.41,245C240,660.84,259,562.7,331.64,433.75Z"/><path class="cls-4" d="M428.1,629.1s311-317.65,329.6,231.58C368.41,932.38,409.41,776.05,428.1,629.1Z"/><path class="cls-5" d="M460.08,374.21c25.09-87.82-1.46-189.88-59.3-228-40.45-26.64-85.49-14.92-117.5,24.58-22.91,16.33-42,44.64-52.78,82.28-23.83,83.44,2.45,181.11,58.72,218.16,26.09,17.19,54,18.3,78.91,6.25C407.38,470.74,443.24,433.19,460.08,374.21Z"/><path class="cls-2" d="M422.05,678.76a45.71,45.71,0,0,1-4.77,5.55c-1.64,1.66-3.32,3.19-5,4.61a78.93,78.93,0,0,1-10.53,7.34,90.13,90.13,0,0,1-22.47,9.23,89,89,0,0,1-24.11,3,77.68,77.68,0,0,1-12.78-1.23q-3.27-.6-6.63-1.56a46,46,0,0,1-6.89-2.52,45.21,45.21,0,0,1,4.77-5.57,67,67,0,0,1,5-4.62,77.65,77.65,0,0,1,10.52-7.34,89,89,0,0,1,22.49-9.2,90.26,90.26,0,0,1,24.12-3,78.78,78.78,0,0,1,12.78,1.23c2.18.4,4.38.91,6.63,1.55A46,46,0,0,1,422.05,678.76Z"/><path class="cls-2" d="M333.34,696.94a66,66,0,0,1,2.89,8.69q1.14,4.29,1.92,8.54A131.7,131.7,0,0,1,340.07,731a167.17,167.17,0,0,1-9.75,64.49,130.43,130.43,0,0,1-6.84,15.45c-1.33,2.55-2.79,5.07-4.38,7.58a64.22,64.22,0,0,1-5.36,7.43,66.17,66.17,0,0,1-2.91-8.69q-1.15-4.29-1.93-8.54A131.73,131.73,0,0,1,307,791.89a161.3,161.3,0,0,1,1.74-32.72,163.54,163.54,0,0,1,8.1-31.75A132,132,0,0,1,323.63,712c1.34-2.54,2.79-5.07,4.37-7.58A66.2,66.2,0,0,1,333.34,696.94Z"/><path class="cls-2" d="M315.53,1004.21a114.64,114.64,0,0,1-4.31-11.67c-1.25-3.9-2.35-7.79-3.34-11.69-2-7.8-3.52-15.6-4.73-23.4a344.55,344.55,0,0,1-1.28-93.84c1-7.83,2.37-15.67,4.13-23.52q1.33-5.88,3-11.77a111.53,111.53,0,0,1,4-11.78,111.65,111.65,0,0,1,4.33,11.67q1.88,5.84,3.35,11.69c2,7.79,3.53,15.59,4.74,23.4a330.33,330.33,0,0,1,3.8,46.88,333.32,333.32,0,0,1-2.61,47q-1.51,11.75-4.12,23.52c-.89,3.92-1.89,7.84-3,11.77A116.84,116.84,0,0,1,315.53,1004.21Z"/><path class="cls-2" d="M233.36,993a43.28,43.28,0,0,1,5.76-4.16,64.39,64.39,0,0,1,5.75-3.18,72.45,72.45,0,0,1,11.5-4.43,84.08,84.08,0,0,1,46,0,71.56,71.56,0,0,1,11.5,4.44,63.57,63.57,0,0,1,5.76,3.19A43.17,43.17,0,0,1,325.4,993a43.17,43.17,0,0,1-5.75,4.18,63.71,63.71,0,0,1-5.76,3.2,72.45,72.45,0,0,1-11.5,4.43,84.08,84.08,0,0,1-46,0,72.45,72.45,0,0,1-11.5-4.43,64.39,64.39,0,0,1-5.75-3.18A43.28,43.28,0,0,1,233.36,993Z"/><path class="cls-6" d="M379.92,182.73s96.18-134.1-50.6-136.32"/><path class="cls-6" d="M358.44,163.6s47.13-76.1-52.61-62.45"/><ellipse class="cls-7" cx="320.29" cy="40.61" rx="19.17" ry="22.24"/><ellipse class="cls-7" cx="305.83" cy="103.29" rx="19.17" ry="22.24"/><path class="cls-4" d="M715.21,623.34c-41.76,30-83.55,74.84-118.35,130.21-25.66,40.83-44.49,82.6-56.2,122,50.31,6.6,120,2.9,215.86-14.68.38-.53.76-1.06,1.13-1.6C753.78,748.48,738,673.09,715.21,623.34Z"/><path class="cls-4" d="M477.37,857.64c16.48-44.88,39.1-91.17,67.68-136.65,39-62,84.07-114.66,130.48-155.14a110,110,0,0,0-24.47-17.07c-42.86,30-86,75.74-121.69,132.59S471.08,797.1,462.64,848.83A120.24,120.24,0,0,0,477.37,857.64Z"/><path class="cls-4" d="M554.64,546.4c-67.89,22.79-126.54,82.71-126.54,82.71-5.93,46.66-14.11,94.27-10.05,135.23A762.17,762.17,0,0,1,554.64,546.4Z"/><path class="cls-8" d="M462.64,848.83c8.44-51.73,30.93-110.5,66.73-167.46S608.2,578.82,651.06,548.78c-30.78-15.59-64.61-13.06-96.42-2.38A762.17,762.17,0,0,0,418.05,764.34C421.45,798.68,433.47,828.34,462.64,848.83Z"/><path class="cls-8" d="M757.7,860.68c0-.46,0-.91-.05-1.38-.37.54-.75,1.07-1.13,1.6Z"/><path class="cls-8" d="M715.21,623.34c-11.64-25.42-25.09-44.15-39.68-57.49C629.12,606.33,584,659,545.05,721c-28.58,45.48-51.2,91.77-67.68,136.65,16.56,8.4,37.36,14.53,63.29,17.94,11.71-39.43,30.54-81.2,56.2-122C631.66,698.18,673.45,653.39,715.21,623.34Z"/><path class="cls-2" d="M395.36,678.26a45.71,45.71,0,0,1-4.77,5.55,66.75,66.75,0,0,1-5,4.6,77.65,77.65,0,0,1-10.52,7.34A90.23,90.23,0,0,1,352.57,705a89,89,0,0,1-24.11,3,76.6,76.6,0,0,1-12.78-1.23,67.38,67.38,0,0,1-6.63-1.56,44.87,44.87,0,0,1-6.89-2.52,46,46,0,0,1,4.77-5.57q2.46-2.49,5-4.62a77.12,77.12,0,0,1,10.53-7.34A91.84,91.84,0,0,1,369.07,673a77.64,77.64,0,0,1,12.78,1.22c2.18.4,4.39.91,6.63,1.55A44.61,44.61,0,0,1,395.36,678.26Z"/><path class="cls-2" d="M306.65,696.44a65.88,65.88,0,0,1,2.89,8.68c.77,2.87,1.4,5.71,1.92,8.54a133.57,133.57,0,0,1,1.93,16.78,163.55,163.55,0,0,1-1.71,32.73,161.18,161.18,0,0,1-8.05,31.76,131.26,131.26,0,0,1-6.83,15.45q-2,3.82-4.39,7.58a64.22,64.22,0,0,1-5.36,7.43,66,66,0,0,1-2.9-8.68c-.78-2.87-1.42-5.72-1.94-8.54a132.09,132.09,0,0,1-1.93-16.79A160.58,160.58,0,0,1,282,758.66a162.79,162.79,0,0,1,8.09-31.75A130.48,130.48,0,0,1,297,711.45c1.33-2.54,2.78-5.07,4.37-7.58A65.1,65.1,0,0,1,306.65,696.44Z"/><path class="cls-2" d="M288.84,1003.7A113.77,113.77,0,0,1,284.53,992q-1.86-5.85-3.34-11.69c-2-7.79-3.52-15.6-4.73-23.4a334.88,334.88,0,0,1-3.85-46.88,330.31,330.31,0,0,1,2.58-47q1.5-11.75,4.12-23.52,1.33-5.88,3-11.77a112.31,112.31,0,0,1,4-11.78,112.5,112.5,0,0,1,4.33,11.67q1.88,5.85,3.35,11.69c2,7.8,3.53,15.6,4.74,23.4a330.35,330.35,0,0,1,3.81,46.88,334.83,334.83,0,0,1-2.62,47c-1,7.84-2.36,15.67-4.12,23.52q-1.32,5.88-3,11.77A116,116,0,0,1,288.84,1003.7Z"/><path class="cls-2" d="M206.67,992.47a43.17,43.17,0,0,1,5.76-4.15,62,62,0,0,1,5.75-3.18,72.45,72.45,0,0,1,11.5-4.43,84.2,84.2,0,0,1,46-.05,72.61,72.61,0,0,1,11.51,4.44q2.87,1.41,5.75,3.19a44.34,44.34,0,0,1,5.75,4.18,43.53,43.53,0,0,1-5.75,4.19q-2.88,1.79-5.75,3.19a71.6,71.6,0,0,1-11.51,4.43,81.12,81.12,0,0,1-23,3.19,82.63,82.63,0,0,1-23-3.23,72.45,72.45,0,0,1-11.5-4.43,62,62,0,0,1-5.75-3.18A43.28,43.28,0,0,1,206.67,992.47Z"/><path class="cls-2" d="M223.75,550a71.06,71.06,0,0,1,7.8-5.62q4-2.52,8-4.66a148.89,148.89,0,0,1,16.3-7.41A184.4,184.4,0,0,1,289.39,523a182.1,182.1,0,0,1,34.7-3,144.58,144.58,0,0,1,17.85,1.31c3,.41,6.05.95,9.1,1.62a70.05,70.05,0,0,1,9.27,2.58,71.3,71.3,0,0,1-7.79,5.65q-4,2.52-8,4.67a146.15,146.15,0,0,1-16.29,7.42A189,189,0,0,1,260,555.46a148.89,148.89,0,0,1-17.85-1.31q-4.52-.61-9.1-1.6A71.85,71.85,0,0,1,223.75,550Z"/><path class="cls-2" d="M221.71,648.44a128.31,128.31,0,0,1,13.14-2.22q6.53-.83,13-1.25c8.62-.57,17.19-.75,25.7-.59A401.8,401.8,0,0,1,373.73,659.5Q386,663,398.11,667.68q6,2.34,12,5.05a130.34,130.34,0,0,1,11.9,6A129.09,129.09,0,0,1,408.9,681q-6.52.82-13,1.26-12.93.87-25.7.6a385.55,385.55,0,0,1-50.57-4.43A389,389,0,0,1,270,667.65q-12.27-3.54-24.38-8.17-6-2.33-12-5A132.59,132.59,0,0,1,221.71,648.44Z"/><path class="cls-2" d="M314.3,708.19a50.2,50.2,0,0,1-7.85.31q-3.78-.11-7.36-.54a94,94,0,0,1-13.77-2.75,110.25,110.25,0,0,1-24.75-10.4,108.63,108.63,0,0,1-21.57-16,90.88,90.88,0,0,1-9.37-10.45c-1.47-1.92-2.87-3.94-4.21-6.08a51.41,51.41,0,0,1-3.71-6.93,49.22,49.22,0,0,1,7.86-.33c2.52.06,5,.24,7.37.53a91.45,91.45,0,0,1,13.77,2.75,108.55,108.55,0,0,1,24.72,10.43,109.75,109.75,0,0,1,21.55,16,93.64,93.64,0,0,1,9.38,10.45c1.47,1.92,2.87,3.93,4.21,6.07A51.19,51.19,0,0,1,314.3,708.19Z"/><path class="cls-2" d="M404.86,929.44c-3.43-4-6.52-8.1-9.51-12.25s-5.85-8.37-8.6-12.63q-8.24-12.76-15.42-26A557.78,557.78,0,0,1,326,768q-4.12-14.46-7.22-29.34-1.53-7.44-2.7-15c-.78-5.06-1.46-10.17-1.79-15.41,3.44,4,6.54,8.09,9.53,12.24s5.86,8.37,8.61,12.62q8.25,12.76,15.43,26a534.67,534.67,0,0,1,25.59,54.1,540.3,540.3,0,0,1,19.65,56.54q4.13,14.46,7.22,29.33c1,5,1.93,10,2.72,15S404.52,924.2,404.86,929.44Z"/><path class="cls-2" d="M335.58,962.5a40.53,40.53,0,0,1,1.83-6.58,57.62,57.62,0,0,1,2.41-5.8,66,66,0,0,1,6-10.06,74,74,0,0,1,15.38-15.61A72.56,72.56,0,0,1,380.44,914a64.82,64.82,0,0,1,11.33-3,58.2,58.2,0,0,1,6.25-.71,41.45,41.45,0,0,1,6.84.08A39.8,39.8,0,0,1,403,917a57.81,57.81,0,0,1-2.41,5.81,64.71,64.71,0,0,1-6,10.06,72.56,72.56,0,0,1-15.41,15.58A73.48,73.48,0,0,1,360,958.87a65.85,65.85,0,0,1-11.32,3,58.6,58.6,0,0,1-6.24.71A41.22,41.22,0,0,1,335.58,962.5Z"/><path class="cls-2" d="M339.08,697.45a50.2,50.2,0,0,1-7.85.31q-3.78-.1-7.36-.54a92.71,92.71,0,0,1-13.77-2.75,110.25,110.25,0,0,1-24.75-10.4,108.63,108.63,0,0,1-21.57-16,91.82,91.82,0,0,1-9.37-10.45c-1.47-1.92-2.87-3.94-4.21-6.08a51.41,51.41,0,0,1-3.71-6.93,50.42,50.42,0,0,1,7.86-.33c2.52.06,5,.24,7.37.53a91.45,91.45,0,0,1,13.77,2.75A112.07,112.07,0,0,1,321.76,674a93.64,93.64,0,0,1,9.38,10.45c1.47,1.92,2.87,3.93,4.21,6.07A50.09,50.09,0,0,1,339.08,697.45Z"/><path class="cls-2" d="M429.64,918.7c-3.43-4-6.52-8.1-9.51-12.25s-5.85-8.37-8.6-12.63q-8.23-12.77-15.42-26a542.28,542.28,0,0,1-25.63-54.08,535.61,535.61,0,0,1-19.69-56.52q-4.12-14.46-7.22-29.34-1.53-7.44-2.7-15c-.78-5.06-1.46-10.16-1.79-15.41,3.44,4,6.54,8.09,9.53,12.24s5.86,8.37,8.62,12.62q8.24,12.78,15.42,26a534.67,534.67,0,0,1,25.59,54.1,540.3,540.3,0,0,1,19.65,56.54q4.13,14.46,7.22,29.33,1.54,7.46,2.72,15C428.62,908.35,429.3,913.46,429.64,918.7Z"/><path class="cls-2" d="M360.36,951.76a40.82,40.82,0,0,1,1.83-6.58,60.06,60.06,0,0,1,2.42-5.8,66.21,66.21,0,0,1,6-10A73.79,73.79,0,0,1,386,913.71a72.71,72.71,0,0,1,19.24-10.48,64.82,64.82,0,0,1,11.33-3,58.49,58.49,0,0,1,6.25-.71,41.45,41.45,0,0,1,6.84.08,40.81,40.81,0,0,1-1.81,6.6,60.24,60.24,0,0,1-2.41,5.81,65.54,65.54,0,0,1-6,10.06A72.74,72.74,0,0,1,404,937.68a73.54,73.54,0,0,1-19.27,10.45,65.85,65.85,0,0,1-11.32,3,58.3,58.3,0,0,1-6.24.71A40.16,40.16,0,0,1,360.36,951.76Z"/><path class="cls-2" d="M221,602.66a44,44,0,0,1-7.27,0,67.06,67.06,0,0,1-6.7-.81,77.18,77.18,0,0,1-12.3-3.2,88.3,88.3,0,0,1-21.36-11,87.09,87.09,0,0,1-17.68-16.27,76.49,76.49,0,0,1-7.22-10.47,65.28,65.28,0,0,1-3-6,44.58,44.58,0,0,1-2.48-6.84,45.25,45.25,0,0,1,7.27,0,67.3,67.3,0,0,1,6.71.8,75.86,75.86,0,0,1,12.3,3.2,86.84,86.84,0,0,1,21.34,11,88,88,0,0,1,17.66,16.31,77,77,0,0,1,7.22,10.46,66.41,66.41,0,0,1,3.05,6A44.33,44.33,0,0,1,221,602.66Z"/><path class="cls-2" d="M214.27,598a58.55,58.55,0,0,1,4.82-7.14c1.7-2.21,3.46-4.29,5.27-6.27a114.58,114.58,0,0,1,11.41-10.82,140.32,140.32,0,0,1,25.4-16.63,138.29,138.29,0,0,1,28.32-10.92,112.53,112.53,0,0,1,15.45-2.93q4-.46,8.17-.6a58.72,58.72,0,0,1,8.62.29,58.4,58.4,0,0,1-4.81,7.16c-1.69,2.21-3.45,4.3-5.26,6.28a114.58,114.58,0,0,1-11.41,10.82,138.32,138.32,0,0,1-25.41,16.6,140.56,140.56,0,0,1-28.34,10.88,115.93,115.93,0,0,1-15.45,2.93q-4,.48-8.17.61A59.92,59.92,0,0,1,214.27,598Z"/><path class="cls-2" d="M146.74,559.54a36.5,36.5,0,0,1-5.32-3.19,52.74,52.74,0,0,1-4.38-3.48,51.41,51.41,0,0,1-6.93-7.51,54,54,0,0,1-8.47-16.68,53.23,53.23,0,0,1-2.33-18.55,50.71,50.71,0,0,1,1.56-10.1,51.23,51.23,0,0,1,1.7-5.34,36.66,36.66,0,0,1,2.66-5.62,36.22,36.22,0,0,1,5.34,3.18,50,50,0,0,1,11.33,11,53.25,53.25,0,0,1,8.43,16.68,53.81,53.81,0,0,1,2.29,18.56,51.39,51.39,0,0,1-1.55,10.11,52.63,52.63,0,0,1-1.69,5.33A36,36,0,0,1,146.74,559.54Z"/><path class="cls-2" d="M266.25,550a76.15,76.15,0,0,1,7.51-6.51q3.83-3,7.77-5.57a156.21,156.21,0,0,1,16.09-9.29,204.62,204.62,0,0,1,69.29-20.2,158.26,158.26,0,0,1,18.57-.78q4.72.09,9.55.55a75.76,75.76,0,0,1,9.83,1.49,76.35,76.35,0,0,1-7.49,6.54c-2.56,2-5.15,3.85-7.78,5.58a156.18,156.18,0,0,1-16.08,9.3,204.25,204.25,0,0,1-69.32,20.11,155.94,155.94,0,0,1-18.56.79c-3.15-.06-6.33-.23-9.55-.53A77.72,77.72,0,0,1,266.25,550Z"/><rect class="cls-5" x="104.23" y="275.94" width="41.38" height="312.36" rx="20.69" ry="20.69" transform="translate(-178.34 99.91) rotate(-26.27)"/><path class="cls-2" d="M149.6,510.19a60.69,60.69,0,0,1-7.71-4.23c-2.41-1.51-4.7-3.1-6.89-4.76a121,121,0,0,1-12.16-10.57,148,148,0,0,1-19.6-24.22A146,146,0,0,1,89,438.7a121.6,121.6,0,0,1-4.73-15.41c-.62-2.67-1.13-5.42-1.54-8.23a60.24,60.24,0,0,1-.72-8.78,60.37,60.37,0,0,1,7.73,4.22c2.41,1.51,4.71,3.1,6.9,4.75a118.77,118.77,0,0,1,12.16,10.57,145.55,145.55,0,0,1,19.57,24.24,147.9,147.9,0,0,1,14.18,27.74,118.28,118.28,0,0,1,4.73,15.4q.94,4,1.56,8.23A61.33,61.33,0,0,1,149.6,510.19Z"/><path class="cls-2" d="M125.23,489.07a67.19,67.19,0,0,1,9.16.77c2.94.43,5.82,1,8.64,1.61a132.7,132.7,0,0,1,16.27,4.85,164.9,164.9,0,0,1,29.58,14.49,162.84,162.84,0,0,1,26.21,19.95,133,133,0,0,1,11.6,12.39q2.75,3.36,5.29,7a65.52,65.52,0,0,1,4.78,7.87,65.68,65.68,0,0,1-9.17-.76c-3-.42-5.84-.95-8.65-1.59a132.33,132.33,0,0,1-16.28-4.85A163.54,163.54,0,0,1,173.1,536.3a165.33,165.33,0,0,1-26.18-20,134.47,134.47,0,0,1-11.61-12.39q-2.75-3.35-5.3-7A65.89,65.89,0,0,1,125.23,489.07Z"/><path class="cls-2" d="M94,424.66a39.78,39.78,0,0,1-6.21-2.49,60.61,60.61,0,0,1-5.36-3,62.22,62.22,0,0,1-9-6.91,69.23,69.23,0,0,1-13.21-16.61,68.14,68.14,0,0,1-7.62-19.8,62,62,0,0,1-1.35-11.31,60.7,60.7,0,0,1,.17-6.13,39.77,39.77,0,0,1,1-6.63,40,40,0,0,1,6.23,2.48,60.77,60.77,0,0,1,5.37,3,62.16,62.16,0,0,1,9,6.91A68.57,68.57,0,0,1,86.22,380.8a69.3,69.3,0,0,1,7.59,19.81,62.86,62.86,0,0,1,1.34,11.31,55.36,55.36,0,0,1-.16,6.13A39.36,39.36,0,0,1,94,424.66Z"/></g><g id="Capa_3" data-name="Capa 3"><line class="cls-9" x1="231.6" y1="243.12" x2="400.82" y2="219.39"/><path class="cls-10" d="M227.53,353.35S185.05,285,194.71,247.92,309.61,205,309.61,205s11.56,10.49,4.09,24.94S346.22,350,227.53,353.35Z"/><path class="cls-11" d="M236.75,346.8s-38.42-51.22-33.32-81.32,98.11-34.74,93.18-22.74S330.71,335.67,236.75,346.8Z"/><ellipse class="cls-5" cx="239.82" cy="305.24" rx="14.06" ry="11.98" transform="translate(-82.86 521.02) rotate(-85.62)"/></g></svg>