<svg xmlns="http://www.w3.org/2000/svg" viewBox="0 0 711.55 879.09"><defs><style>.cls-1{fill:#1b1a1b;}.cls-1,.cls-3,.cls-4{stroke:#fff;}.cls-1,.cls-2,.cls-3,.cls-4,.cls-6{stroke-miterlimit:10;}.cls-2{fill:#606060;}.cls-2,.cls-6{stroke:#211915;}.cls-3,.cls-4{fill:none;}.cls-4{stroke-width:34px;}.cls-5{fill:#343434;}.cls-6{fill:#fff;}</style></defs><title>Calculadora</title><g id="Capa_1" data-name="Capa 1"><rect class="cls-1" x="42.45" y="24.77" width="616.36" height="832.73" rx="39.09" ry="39.09"/><rect class="cls-2" x="73.36" y="59.32" width="543.64" height="210.91" rx="12" ry="12"/><line class="cls-3" x1="558.59" y1="99.32" x2="558.82" y2="226.59"/><line class="cls-4" x1="126.09" y1="162.95" x2="287.91" y2="162.95"/><line class="cls-4" x1="358.82" y1="164.77" x2="526.09" y2="164.77"/></g><g id="Capa_3" data-name="Capa 3"><rect class="cls-5" x="85.18" y="303.95" width="115.45" height="115.45" rx="12" ry="12"/><rect class="cls-5" x="218.36" y="303.5" width="115.45" height="115.45" rx="12" ry="12"/><rect class="cls-5" x="351.09" y="302.77" width="115.45" height="115.45" rx="12" ry="12"/><rect class="cls-5" x="501.09" y="302.77" width="115.45" height="115.45" rx="12" ry="12"/><rect class="cls-5" x="85.86" y="434.82" width="115.45" height="115.45" rx="12" ry="12"/><rect class="cls-5" x="219.05" y="434.36" width="115.45" height="115.45" rx="12" ry="12"/><rect class="cls-5" x="351.77" y="433.64" width="115.45" height="115.45" rx="12" ry="12"/><rect class="cls-5" x="501.77" y="433.64" width="115.45" height="115.45" rx="12" ry="12"/><rect class="cls-6" x="84.95" y="567.09" width="115.45" height="115.45" rx="12" ry="12"/><rect class="cls-6" x="218.14" y="566.64" width="115.45" height="115.45" rx="12" ry="12"/><rect class="cls-6" x="350.86" y="565.91" width="115.45" height="115.45" rx="12" ry="12"/><rect class="cls-6" x="500.86" y="565.91" width="115.45" height="115.45" rx="12" ry="12"/><rect class="cls-6" x="84.95" y="699.36" width="115.45" height="115.45" rx="12" ry="12"/><rect class="cls-5" x="218.14" y="698.91" width="115.45" height="115.45" rx="12" ry="12"/><rect class="cls-5" x="350.86" y="698.18" width="115.45" height="115.45" rx="12" ry="12"/><rect class="cls-6" x="500.86" y="698.18" width="115.45" height="115.45" rx="12" ry="12"/></g></svg>